<svg xmlns="http://www.w3.org/2000/svg" width="8.2095mm" height="10.6059mm" viewBox="0 0 23.271 30.0638"><defs><style>.a{fill:#ef4a81;}</style></defs><path class="a" d="M19.12,17.9791a3.8052,3.8052,0,0,0-1.6024-3.1863h1.4161a6.7946,6.7946,0,0,1,4.9937,2.0683,6.7233,6.7233,0,0,1,2.0683,4.9751A6.5667,6.5667,0,0,1,23.9833,26.7a6.8974,6.8974,0,0,1-4.8633,2.05ZM17.5921,36.9105l-5.385-2.5155A3.1327,3.1327,0,0,1,10.6605,31.6V11.5506c.13,1.23,1.2112,2.3665,3.2236,3.3913a6.2415,6.2415,0,0,0,1.0994.3913,6.7743,6.7743,0,0,1,1.1366.3726,2.32,2.32,0,0,1,1.472,2.2733Zm10.975-24.4841A13.2108,13.2108,0,0,0,18.7287,8.383h-6.503a2.8953,2.8953,0,0,0-2.236.9689,3.444,3.444,0,0,0-.8571,2.7391V31.6a4.5657,4.5657,0,0,0,2.2733,4.0993l5.5527,2.59a1.37,1.37,0,0,0,1.4534-.1118,1.4366,1.4366,0,0,0,.708-1.2671V35.159a13.07,13.07,0,0,0,9.3912-3.9316,12.7859,12.7859,0,0,0,3.8757-9.3912,13.0134,13.0134,0,0,0-3.82-9.41Z" transform="translate(-9.1159 -8.383)"/></svg>