<svg xmlns="http://www.w3.org/2000/svg" width="35.3211mm" height="8.8317mm" viewBox="0 0 100.1228 25.0347"><defs><style>.a{fill:#8a73dd;}.b{fill:#aadf30;}</style></defs><path class="a" d="M33.4933,2.725h4.375a6.34,6.34,0,0,1,3.2324.83,5.783,5.783,0,0,1,2.2461,2.3632,7.22,7.22,0,0,1,.82,3.4082v.6348a7.29,7.29,0,0,1-.791,3.4277,5.8354,5.8354,0,0,1-2.2168,2.3633,6.1674,6.1674,0,0,1-3.1934.8692h-.84a3.46,3.46,0,0,1-2.5684-1.0889,3.6283,3.6283,0,0,1-1.0644-2.6318Zm3.2715,11.3183h1.1425a2.514,2.514,0,0,0,2.1582-1.0254,5.0973,5.0973,0,0,0,.7618-3.0566V9.3656a5.0575,5.0575,0,0,0-.7618-3.0371,2.5631,2.5631,0,0,0-2.1972-1.0156H36.7648Z" transform="translate(-4.3476 -1.8962)"/><path class="a" d="M55.71,13.3793a5.5152,5.5152,0,0,1-2.1,2.3535,5.849,5.849,0,0,1-3.086.82,5.9822,5.9822,0,0,1-3.0859-.791,5.4732,5.4732,0,0,1-2.09-2.2852,7.7294,7.7294,0,0,1-.791-3.3984V9.3168A8.046,8.046,0,0,1,45.29,5.7914a5.4309,5.4309,0,0,1,2.1-2.3535,6.2193,6.2193,0,0,1,6.1914-.01,5.5445,5.5445,0,0,1,2.1,2.334,7.8518,7.8518,0,0,1,.7617,3.4765v.625A8.0613,8.0613,0,0,1,55.71,13.3793ZM52.4386,6.2211a2.1658,2.1658,0,0,0-1.9336-1.045q-2.4705,0-2.6074,3.6915l-.01.996a5.8589,5.8589,0,0,0,.6641,3.0665,2.1713,2.1713,0,0,0,1.9726,1.0742A2.1211,2.1211,0,0,0,52.4288,12.95a5.6964,5.6964,0,0,0,.6836-3.0274v-.625A5.7508,5.7508,0,0,0,52.4386,6.2211Z" transform="translate(-4.3476 -1.8962)"/><path class="a" d="M61.7355,5.2836a.1879.1879,0,0,0-.1368.0586.1988.1988,0,0,0-.0585.1464v7.9688a3.083,3.083,0,0,1-.8985,2.2314,2.9263,2.9263,0,0,1-2.1777.9229.1876.1876,0,0,1-.1367-.0586.1987.1987,0,0,1-.0586-.1465V5.4886a.2.2,0,0,0-.2051-.205H56.589a2.2156,2.2156,0,0,1-1.6406-.6983,2.33,2.33,0,0,1-.6836-1.6943.2036.2036,0,0,1,.0586-.1416.18.18,0,0,1,.1367-.0635h8.8281a2.2018,2.2018,0,0,1,1.6455.7031,2.3469,2.3469,0,0,1,.6787,1.69.1987.1987,0,0,1-.0586.1465.1879.1879,0,0,1-.1367.0586Z" transform="translate(-4.3476 -1.8962)"/><path class="a" d="M81.5206,16.5336a3.8865,3.8865,0,0,1-3.3984-2.0313L75.671,10.0687a.6583.6583,0,0,0-.4736-.332.69.69,0,0,0-.5274.1416.6264.6264,0,0,0-.2392.5322v3.35a2.7117,2.7117,0,0,1-.791,1.958,2.5582,2.5582,0,0,1-1.9043.8155.5491.5491,0,0,1-.41-.1709.5867.5867,0,0,1-.166-.4248V3.3011a.749.749,0,0,1,.21-.5273.6734.6734,0,0,1,.5127-.2246h.2929a3.8515,3.8515,0,0,1,3.3692,2.0215l3.1054,5.625a.3138.3138,0,0,0,.4737.0879.3021.3021,0,0,0,.1123-.2539V5.5472a2.9391,2.9391,0,0,1,.85-2.1191,2.7593,2.7593,0,0,1,2.061-.8789.3305.3305,0,0,1,.249.1074.3679.3679,0,0,1,.1026.2637V15.5277a.9824.9824,0,0,1-.2881.708A.9271.9271,0,0,1,81.5206,16.5336Z" transform="translate(-4.3476 -1.8962)"/><path class="a" d="M88.0348,10.723a1.1016,1.1016,0,0,0-.8154.3418,1.1382,1.1382,0,0,0-.337.83v.9668a1.1542,1.1542,0,0,0,.337.835,1.0952,1.0952,0,0,0,.8154.3466h3.7793a1.1017,1.1017,0,0,1,.8154.3418,1.1506,1.1506,0,0,1,.3369.84V15.44a1.1545,1.1545,0,0,1-.3369.835,1.0955,1.0955,0,0,1-.8154.3467H87.1949a3.4146,3.4146,0,0,1-2.5341-1.0743,3.58,3.58,0,0,1-1.05-2.5976V2.725h8.2226a1.0951,1.0951,0,0,1,.8154.3467,1.1542,1.1542,0,0,1,.337.8349v.2246a1.1546,1.1546,0,0,1-.337.835,1.0955,1.0955,0,0,1-.8154.3467H88.0348a1.1012,1.1012,0,0,0-.8154.3418,1.1381,1.1381,0,0,0-.337.83v.5762a1.1542,1.1542,0,0,0,.337.835,1.0953,1.0953,0,0,0,.8154.3467h2.8418a1.1016,1.1016,0,0,1,.8154.3417,1.1386,1.1386,0,0,1,.3369.83v.127a1.1541,1.1541,0,0,1-.3369.8349,1.0951,1.0951,0,0,1-.8154.3467Z" transform="translate(-4.3476 -1.8962)"/><path class="a" d="M100.5934,5.2836a.1876.1876,0,0,0-.1367.0586.1985.1985,0,0,0-.0586.1464v7.9688A3.0826,3.0826,0,0,1,99.5,15.6888a2.9263,2.9263,0,0,1-2.1777.9229.1876.1876,0,0,1-.1367-.0586.1987.1987,0,0,1-.0586-.1465V5.4886a.2.2,0,0,0-.2051-.205H95.4469a2.2156,2.2156,0,0,1-1.6406-.6983,2.33,2.33,0,0,1-.6836-1.6943.2036.2036,0,0,1,.0586-.1416.18.18,0,0,1,.1367-.0635h8.8281a2.2018,2.2018,0,0,1,1.6455.7031,2.3469,2.3469,0,0,1,.6787,1.69.1987.1987,0,0,1-.0586.1465.1879.1879,0,0,1-.1367.0586Z" transform="translate(-4.3476 -1.8962)"/><path class="b" d="M39.8854,26h-4.58a2.0317,2.0317,0,0,1-.5762-.0928,1.6946,1.6946,0,0,1-.5786-.3052,1.7136,1.7136,0,0,1-.4443-.5517,1.7752,1.7752,0,0,1-.1783-.8326v-4.58a.6389.6389,0,0,1,.0489-.2491.6479.6479,0,0,1,.1343-.205.6074.6074,0,0,1,.2026-.1368.65.65,0,0,1,.2539-.0488h5.7178v1.27H34.7975v3.95a.5156.5156,0,0,0,.1318.3809.5225.5225,0,0,0,.3858.1318h4.57Zm-.5713-2.8614H35.3053V21.86h4.0088Z" transform="translate(-4.3476 -1.8962)"/><path class="b" d="M48.8014,26H43.01a.6484.6484,0,0,1-.2539-.0489.6106.6106,0,0,1-.337-.3369.65.65,0,0,1-.0488-.2539V18.9984h1.27v5.7324h5.1611Z" transform="translate(-4.3476 -1.8962)"/><path class="b" d="M57.2926,26h-4.58a2.03,2.03,0,0,1-.5762-.0928,1.6776,1.6776,0,0,1-1.0224-.8569,1.769,1.769,0,0,1-.1787-.8326v-4.58a.6519.6519,0,0,1,.1826-.4541.6146.6146,0,0,1,.2031-.1368.6519.6519,0,0,1,.2539-.0488h5.7178v1.27H52.2047v3.95a.5156.5156,0,0,0,.1318.3809.5233.5233,0,0,0,.3858.1318h4.57Zm-.5713-2.8614H52.7125V21.86h4.0088Z" transform="translate(-4.3476 -1.8962)"/><path class="b" d="M67.9283,26H66.649V21.83l-2.2509,3.96a.5577.5577,0,0,1-.2315.2295.6787.6787,0,0,1-.32.0781.6433.6433,0,0,1-.31-.0781.5642.5642,0,0,1-.2266-.2295l-2.2607-3.96V26h-1.27V19.54a.6385.6385,0,0,1,.4688-.62.6783.6783,0,0,1,.2051-.0171.6954.6954,0,0,1,.1982.0439.5992.5992,0,0,1,.3047.2613l2.8906,5.0244,2.8906-5.0244a.6206.6206,0,0,1,.3106-.2637A.6583.6583,0,0,1,67.46,18.92a.6371.6371,0,0,1,.3369.2295.6216.6216,0,0,1,.1318.3906Z" transform="translate(-4.3476 -1.8962)"/><path class="b" d="M76.9908,26h-4.58a2.029,2.029,0,0,1-.5762-.0928,1.6782,1.6782,0,0,1-1.0225-.8569,1.77,1.77,0,0,1-.1787-.8326v-4.58a.6519.6519,0,0,1,.1826-.4541.614.614,0,0,1,.2032-.1368.6516.6516,0,0,1,.2539-.0488h5.7177v1.27H71.9029v3.95a.5156.5156,0,0,0,.1319.3809.5232.5232,0,0,0,.3857.1318h4.57ZM76.42,23.139H72.4108V21.86H76.42Z" transform="translate(-4.3476 -1.8962)"/><path class="b" d="M86.4733,25.4584a.6423.6423,0,0,1-.0508.2539.6806.6806,0,0,1-.1367.2026.6305.6305,0,0,1-.2032.1343.638.638,0,0,1-.249.0488.6874.6874,0,0,1-.2373-.0439.5571.5571,0,0,1-.2119-.1416l-4.6387-4.8438V26H79.4762V19.54a.6014.6014,0,0,1,.11-.354.6714.6714,0,0,1,.28-.2368.6435.6435,0,0,1,.3711-.0366.603.603,0,0,1,.3272.1782L85.2037,23.93V18.9984h1.27Z" transform="translate(-4.3476 -1.8962)"/><path class="b" d="M95.5358,20.2679H92.7379V26H91.4684V20.2679H88.6656v-1.27h6.87Z" transform="translate(-4.3476 -1.8962)"/><path class="b" d="M104.4576,23.94a2.2655,2.2655,0,0,1-.0947.6763,2.0411,2.0411,0,0,1-.2519.53,1.6952,1.6952,0,0,1-.3663.3906,2.2475,2.2475,0,0,1-.4345.2637,2.1741,2.1741,0,0,1-.4571.1513,2.1021,2.1021,0,0,1-.4365.0489H97.5192v-1.27h4.8974a.7468.7468,0,0,0,.5694-.2148.8071.8071,0,0,0,.2021-.5762.9223.9223,0,0,0-.0537-.3222.74.74,0,0,0-.1543-.254.6691.6691,0,0,0-.2441-.166.8392.8392,0,0,0-.3194-.0586h-2.92a2.2625,2.2625,0,0,1-.6641-.11,1.9935,1.9935,0,0,1-.6611-.354,1.9182,1.9182,0,0,1-.5078-.64,2.3967,2.3967,0,0,1,0-1.9311,1.947,1.947,0,0,1,1.1689-.9961,2.26,2.26,0,0,1,.6641-.11h4.3213v1.27H99.4967a.727.727,0,0,0-.5635.22.821.821,0,0,0-.2031.581.8011.8011,0,0,0,.2031.5786.74.74,0,0,0,.5635.2124h2.93a2.2641,2.2641,0,0,1,.4346.0562,2.1842,2.1842,0,0,1,.457.1587,2.2437,2.2437,0,0,1,.4316.271,1.8208,1.8208,0,0,1,.3633.393,1.9,1.9,0,0,1,.252.5274A2.2758,2.2758,0,0,1,104.4576,23.94Z" transform="translate(-4.3476 -1.8962)"/><path class="b" d="M9.3513,21.9184V11.9111l-.0122-.3491A5.39,5.39,0,0,0,9.05,10.2,5.0258,5.0258,0,0,0,4.3476,6.9074V26.9221a5.0157,5.0157,0,0,0,5.0037-5.0037" transform="translate(-4.3476 -1.8962)"/><path class="a" d="M9.3513,26.9221c1.7809-.0567,5.895.17,7.6044-.2734a13.4706,13.4706,0,0,0,3.2719-1.1909,12.5091,12.5091,0,0,0-.7847-22.4726,13.48,13.48,0,0,0-3.347-.96c-1.2314-.2011-5.4216-.1022-6.7446-.1217H4.3476a5.0224,5.0224,0,0,0,3.7932,4.855,5.89,5.89,0,0,0,1.21.1487c.2135-.0089,5.519-.0035,5.5272.0182a8.6506,8.6506,0,0,1,1.5452.2725,7.5055,7.5055,0,0,1,.984,14.0714,8.0861,8.0861,0,0,1-2.0082.5758c-.6041.0586-1.4971.0579-2.0849.1824A5.0208,5.0208,0,0,0,9.3513,26.9221Z" transform="translate(-4.3476 -1.8962)"/></svg>