<svg xmlns="http://www.w3.org/2000/svg" width="7.9437mm" height="8.8317mm" viewBox="0 0 22.5176 25.0347"><defs><style>.a{fill:#aadf30;}.b{fill:#8a73dd;}</style></defs><path class="a" d="M7.8789,22.3485V12.3412l-.0122-.3491a5.3908,5.3908,0,0,0-.29-1.3623A5.0261,5.0261,0,0,0,2.8752,7.3375V27.3522a5.0157,5.0157,0,0,0,5.0037-5.0037" transform="translate(-2.8752 -2.3263)"/><path class="b" d="M7.8789,27.3522c1.7809-.0567,5.895.17,7.6044-.2734a13.4745,13.4745,0,0,0,3.2719-1.1908,12.5092,12.5092,0,0,0-.7847-22.4727,13.4755,13.4755,0,0,0-3.347-.96c-1.2314-.2011-5.4216-.1022-6.7446-.1218H2.8752A5.0225,5.0225,0,0,0,6.6684,7.1889a5.8963,5.8963,0,0,0,1.21.1486c.2135-.0088,5.519-.0035,5.5272.0183a8.6328,8.6328,0,0,1,1.5452.2725A7.5054,7.5054,0,0,1,15.9353,21.7a8.0906,8.0906,0,0,1-2.0082.5759c-.6041.0585-1.4971.0579-2.0849.1824A5.0207,5.0207,0,0,0,7.8789,27.3522Z" transform="translate(-2.8752 -2.3263)"/></svg>