<svg xmlns="http://www.w3.org/2000/svg" width="35.1363mm" height="10.6059mm" viewBox="0 0 99.5991 30.0638"><defs><style>.a{fill:#ef4a81;}</style></defs><path class="a" d="M19.12,17.9791a3.8052,3.8052,0,0,0-1.6024-3.1863h1.4161a6.7946,6.7946,0,0,1,4.9937,2.0683,6.7233,6.7233,0,0,1,2.0683,4.9751A6.5667,6.5667,0,0,1,23.9833,26.7a6.8974,6.8974,0,0,1-4.8633,2.05ZM17.5921,36.9105l-5.385-2.5155A3.1327,3.1327,0,0,1,10.6605,31.6V11.5506c.13,1.23,1.2112,2.3665,3.2236,3.3913a6.2415,6.2415,0,0,0,1.0994.3913,6.7743,6.7743,0,0,1,1.1366.3726,2.32,2.32,0,0,1,1.472,2.2733Zm10.975-24.4841A13.2108,13.2108,0,0,0,18.7287,8.383h-6.503a2.8953,2.8953,0,0,0-2.236.9689,3.444,3.444,0,0,0-.8571,2.7391V31.6a4.5657,4.5657,0,0,0,2.2733,4.0993l5.5527,2.59a1.37,1.37,0,0,0,1.4534-.1118,1.4366,1.4366,0,0,0,.708-1.2671V35.159a13.07,13.07,0,0,0,9.3912-3.9316,12.7859,12.7859,0,0,0,3.8757-9.3912,13.0134,13.0134,0,0,0-3.82-9.41Z" transform="translate(-9.1159 -8.383)"/><path class="a" d="M37.738,11.8207h4.375a6.3415,6.3415,0,0,1,3.2324.83,5.7839,5.7839,0,0,1,2.2461,2.3633,7.22,7.22,0,0,1,.82,3.4082v.6347a7.2912,7.2912,0,0,1-.791,3.4278,5.8354,5.8354,0,0,1-2.2168,2.3633,6.1675,6.1675,0,0,1-3.1934.8691h-.84a3.46,3.46,0,0,1-2.5684-1.0889,3.6277,3.6277,0,0,1-1.0644-2.6318Zm3.2714,11.3184H42.152A2.514,2.514,0,0,0,44.31,22.1137a5.0984,5.0984,0,0,0,.7617-3.0567v-.5957a5.0582,5.0582,0,0,0-.7617-3.0371,2.5635,2.5635,0,0,0-2.1972-1.0156H41.0094Z" transform="translate(-9.1159 -8.383)"/><path class="a" d="M59.9548,22.475a5.5154,5.5154,0,0,1-2.1,2.3535,5.8484,5.8484,0,0,1-3.0859.82,5.9812,5.9812,0,0,1-3.0859-.791,5.4735,5.4735,0,0,1-2.09-2.2851,7.73,7.73,0,0,1-.791-3.3985v-.7617a8.0474,8.0474,0,0,1,.7324-3.5254,5.4321,5.4321,0,0,1,2.1-2.3535,6.2193,6.2193,0,0,1,6.1914-.01,5.5441,5.5441,0,0,1,2.1,2.334,7.8549,7.8549,0,0,1,.7617,3.4766v.625A8.0623,8.0623,0,0,1,59.9548,22.475Zm-3.2715-7.1582A2.1657,2.1657,0,0,0,54.75,14.2719q-2.47,0-2.6074,3.6914l-.01.9961a5.8586,5.8586,0,0,0,.6641,3.0664A2.1713,2.1713,0,0,0,54.7692,23.1a2.1209,2.1209,0,0,0,1.9043-1.0547,5.6962,5.6962,0,0,0,.6836-3.0273v-.625A5.7509,5.7509,0,0,0,56.6833,15.3168Z" transform="translate(-9.1159 -8.383)"/><path class="a" d="M65.98,14.3793a.1879.1879,0,0,0-.1367.0586.1991.1991,0,0,0-.0586.1465v7.9687a3.0832,3.0832,0,0,1-.8984,2.2315,2.9266,2.9266,0,0,1-2.1777.9228.1879.1879,0,0,1-.1368-.0586.1987.1987,0,0,1-.0586-.1464V14.5844a.2.2,0,0,0-.205-.2051H60.8337a2.2163,2.2163,0,0,1-1.6407-.6982,2.3311,2.3311,0,0,1-.6836-1.6944.2043.2043,0,0,1,.0586-.1416.181.181,0,0,1,.1368-.0634h8.8281a2.2016,2.2016,0,0,1,1.6455.7031,2.3469,2.3469,0,0,1,.6787,1.6894.1985.1985,0,0,1-.0586.1465.1879.1879,0,0,1-.1367.0586Z" transform="translate(-9.1159 -8.383)"/><path class="a" d="M85.7653,25.6293a3.8862,3.8862,0,0,1-3.3984-2.0312l-2.4512-4.4336a.6586.6586,0,0,0-.4736-.3321.6907.6907,0,0,0-.5274.1416.6264.6264,0,0,0-.2392.5323v3.35a2.7116,2.7116,0,0,1-.7911,1.958,2.5583,2.5583,0,0,1-1.9043.8154.5485.5485,0,0,1-.41-.1709.5863.5863,0,0,1-.166-.4248V12.3969a.7494.7494,0,0,1,.21-.5274.6737.6737,0,0,1,.5127-.2246h.293a3.8515,3.8515,0,0,1,3.3691,2.0215l3.1055,5.625a.3135.3135,0,0,0,.4736.0879.3021.3021,0,0,0,.1123-.2539V14.643a2.939,2.939,0,0,1,.85-2.1192,2.7593,2.7593,0,0,1,2.061-.8789.3308.3308,0,0,1,.249.1075.3675.3675,0,0,1,.1026.2636V24.6235a.9826.9826,0,0,1-.2881.708A.927.927,0,0,1,85.7653,25.6293Z" transform="translate(-9.1159 -8.383)"/><path class="a" d="M92.28,19.8188a1.1014,1.1014,0,0,0-.8155.3418,1.1384,1.1384,0,0,0-.3369.83v.9668a1.1545,1.1545,0,0,0,.3369.835,1.0952,1.0952,0,0,0,.8155.3467h3.7793a1.1013,1.1013,0,0,1,.8154.3418,1.15,1.15,0,0,1,.3369.84v.2149a1.1543,1.1543,0,0,1-.3369.8349,1.0951,1.0951,0,0,1-.8154.3467H91.44a3.4147,3.4147,0,0,1-2.5342-1.0742,3.58,3.58,0,0,1-1.05-2.5977V11.8207h8.2227a1.0951,1.0951,0,0,1,.8154.3467,1.1545,1.1545,0,0,1,.3369.835v.2246a1.1541,1.1541,0,0,1-.3369.8349,1.0951,1.0951,0,0,1-.8154.3467H92.28a1.1018,1.1018,0,0,0-.8155.3418,1.1385,1.1385,0,0,0-.3369.83v.5762a1.1543,1.1543,0,0,0,.3369.8349,1.0952,1.0952,0,0,0,.8155.3467h2.8418a1.1017,1.1017,0,0,1,.8154.3418,1.1385,1.1385,0,0,1,.3369.83v.1269a1.1545,1.1545,0,0,1-.3369.835,1.0955,1.0955,0,0,1-.8154.3467Z" transform="translate(-9.1159 -8.383)"/><path class="a" d="M104.8381,14.3793a.1879.1879,0,0,0-.1368.0586.1991.1991,0,0,0-.0586.1465v7.9687a3.0832,3.0832,0,0,1-.8984,2.2315,2.9266,2.9266,0,0,1-2.1777.9228.1876.1876,0,0,1-.1367-.0586.1983.1983,0,0,1-.0586-.1464V14.5844a.2.2,0,0,0-.2051-.2051H99.6916a2.2163,2.2163,0,0,1-1.6407-.6982,2.331,2.331,0,0,1-.6835-1.6944.2041.2041,0,0,1,.0585-.1416.181.181,0,0,1,.1368-.0634h8.8281a2.2015,2.2015,0,0,1,1.6455.7031,2.3469,2.3469,0,0,1,.6787,1.6894.1985.1985,0,0,1-.0586.1465.1876.1876,0,0,1-.1367.0586Z" transform="translate(-9.1159 -8.383)"/><path class="a" d="M44.13,35.0961H39.55a2.0317,2.0317,0,0,1-.5762-.0928,1.6934,1.6934,0,0,1-.5786-.3051,1.7132,1.7132,0,0,1-.4444-.5518,1.7763,1.7763,0,0,1-.1782-.8325v-4.58a.6363.6363,0,0,1,.0489-.249.65.65,0,0,1,.1342-.2051.6061.6061,0,0,1,.2027-.1367.65.65,0,0,1,.2539-.0488H44.13v1.27H39.0422v3.95a.5153.5153,0,0,0,.1318.3808.5224.5224,0,0,0,.3857.1319h4.57Zm-.5712-2.8613H39.55V30.9555h4.0088Z" transform="translate(-9.1159 -8.383)"/><path class="a" d="M53.0461,35.0961H47.255a.6505.6505,0,0,1-.2539-.0488.6117.6117,0,0,1-.3369-.3369.6505.6505,0,0,1-.0488-.2539V28.0942h1.27v5.7324h5.1612Z" transform="translate(-9.1159 -8.383)"/><path class="a" d="M61.5373,35.0961h-4.58a2.029,2.029,0,0,1-.5762-.0928,1.6768,1.6768,0,0,1-1.0224-.8569,1.7689,1.7689,0,0,1-.1787-.8325v-4.58a.6524.6524,0,0,1,.1826-.4541.6128.6128,0,0,1,.2031-.1367.6519.6519,0,0,1,.2539-.0488h5.7178v1.27H56.4494v3.95a.5153.5153,0,0,0,.1318.3808.5233.5233,0,0,0,.3858.1319h4.57Zm-.5713-2.8613H56.9572V30.9555H60.966Z" transform="translate(-9.1159 -8.383)"/><path class="a" d="M72.173,35.0961H70.8937v-4.17l-2.251,3.96a.5568.5568,0,0,1-.2314.23.6779.6779,0,0,1-.32.0782.6427.6427,0,0,1-.3106-.0782.5627.5627,0,0,1-.2265-.23l-2.2608-3.96v4.17H64.0236v-6.46a.6385.6385,0,0,1,.4688-.62.6811.6811,0,0,1,.205-.0171.6955.6955,0,0,1,.1983.044.5984.5984,0,0,1,.3047.2612l2.8906,5.0244,2.8906-5.0244a.6211.6211,0,0,1,.3106-.2637.6591.6591,0,0,1,.4121-.0244.6382.6382,0,0,1,.3369.23.622.622,0,0,1,.1318.3906Z" transform="translate(-9.1159 -8.383)"/><path class="a" d="M81.2355,35.0961h-4.58a2.0289,2.0289,0,0,1-.5761-.0928,1.6773,1.6773,0,0,1-1.0225-.8569,1.77,1.77,0,0,1-.1787-.8325v-4.58a.6524.6524,0,0,1,.1826-.4541.6128.6128,0,0,1,.2031-.1367.6523.6523,0,0,1,.2539-.0488h5.7178v1.27H76.1476v3.95a.5154.5154,0,0,0,.1319.3808.5232.5232,0,0,0,.3857.1319h4.57Zm-.5713-2.8613H76.6554V30.9555h4.0088Z" transform="translate(-9.1159 -8.383)"/><path class="a" d="M90.7179,34.5541a.6422.6422,0,0,1-.0507.2539.6808.6808,0,0,1-.1368.2027.63.63,0,0,1-.2031.1342.6363.6363,0,0,1-.249.0489.6876.6876,0,0,1-.2373-.044.5559.5559,0,0,1-.2119-.1416L84.99,30.1645v4.9316H83.7209v-6.46a.6016.6016,0,0,1,.11-.354.6723.6723,0,0,1,.28-.2368.6442.6442,0,0,1,.3711-.0366.6034.6034,0,0,1,.3271.1782l4.6387,4.8389V28.0942h1.2695Z" transform="translate(-9.1159 -8.383)"/><path class="a" d="M99.78,29.3637H96.9826v5.7324h-1.27V29.3637H92.91v-1.27h6.87Z" transform="translate(-9.1159 -8.383)"/><path class="a" d="M108.7023,33.0356a2.2653,2.2653,0,0,1-.0947.6762,2.04,2.04,0,0,1-.252.53,1.6948,1.6948,0,0,1-.3662.3906,2.2376,2.2376,0,0,1-.4345.2637,2.1706,2.1706,0,0,1-.4571.1514,2.1084,2.1084,0,0,1-.4365.0488h-4.8975v-1.27h4.8975a.7466.7466,0,0,0,.5693-.2149.8063.8063,0,0,0,.2022-.5761.9233.9233,0,0,0-.0537-.3223.7409.7409,0,0,0-.1543-.2539.6662.6662,0,0,0-.2442-.166.8368.8368,0,0,0-.3193-.0586h-2.92a2.26,2.26,0,0,1-.6641-.11,1.9917,1.9917,0,0,1-.6611-.354,1.9176,1.9176,0,0,1-.5078-.64,2.3958,2.3958,0,0,1,0-1.9312,1.9479,1.9479,0,0,1,1.1689-.9961,2.2625,2.2625,0,0,1,.6641-.11h4.3213v1.27h-4.3213a.727.727,0,0,0-.5635.22.821.821,0,0,0-.2031.5811.8013.8013,0,0,0,.2031.5786.74.74,0,0,0,.5635.2124h2.93a2.2616,2.2616,0,0,1,.4345.0561,2.1831,2.1831,0,0,1,.4571.1587,2.2437,2.2437,0,0,1,.4316.271,1.8214,1.8214,0,0,1,.3633.3931,1.8976,1.8976,0,0,1,.2519.5273A2.2736,2.2736,0,0,1,108.7023,33.0356Z" transform="translate(-9.1159 -8.383)"/></svg>