<svg width="341" height="257" viewBox="0 -20 341 257" fill="none" xmlns="http://www.w3.org/2000/svg">
  <path d="M83.307 157.563s2.077 1.174 2.234 2.714c.318 3.117 1.16 10.477 2.086 14.421 2.385 10.174 12.706 12.222 12.706 12.222l-2.78 8.729s-21.948-5.375-26.68-9.033c.203-6.249 4.356-14.878 5.145-18.955.784-4.072 7.29-10.098 7.29-10.098Z" fill="#512BD4"/>
  <path d="m77.624 188.179 6.31-29.038a1.536 1.536 0 0 0-1.24-1.839l-5.716-1.007a1.535 1.535 0 0 0-1.767 1.226l-5.57 29.128c-.161.841.4 1.653 1.24 1.801l4.976.917a1.537 1.537 0 0 0 1.767-1.188Z" fill="url(#a)"/>
  <path d="M340.124 256.974.656 255.435s27.256-14.545 54.512-15.933c19.254-.983 47.08 9.627 47.08 9.627s16.93-6.543 34.279-5.388c13.186.879 28.909 5.54 28.909 5.54s28.496-9.242 59.468-10.012c30.972-.769 42.538 7.936 42.538 7.936s19.411-5.389 35.101-3.849c15.69 1.539 37.581 13.618 37.581 13.618Z" fill="#FFE5B9"/>
  <path d="M219.074 126.606c-1.853-2.628-5.427-3.203-7.974-1.293L44.985 249.728c-1.312.983-.618 3.074 1.021 3.074h12.56a5.013 5.013 0 0 0 2.997-.998L217.82 134.822c2.547-1.911 3.113-5.588 1.255-8.216Z" fill="#FCCF84"/>
  <path d="M224.994 126.606c-1.853-2.628-5.426-3.203-7.973-1.293L50.905 249.728c-1.311.983-.617 3.074 1.022 3.074h12.559a5.013 5.013 0 0 0 2.998-.998L223.74 134.822c2.547-1.911 3.108-5.588 1.254-8.216Z" fill="#F7B548"/>
  <path d="m177.221 251.192 28.291-206.544-4.091-.56-28.368 207.104h4.168Z" fill="#F7B548"/>
  <path d="M240.518 252.807 40.466 180.31c-2.98-1.079-6.235.532-7.28 3.597s.518 6.419 3.493 7.498l169.442 61.402h34.397Z" fill="#F7B548"/>
  <path d="m100.96 185.869-2.537 10.963c13.2 3.126 69.879 17.652 78.85 20.351 2.442.737 3.16-11.575-1.131-12.611-7.056-1.706-64.329-16.132-75.182-18.703Z" fill="#8A6FE8"/>
  <path d="m111.238 183.75-2.537 10.962c13.2 3.127 64.975 16.394 73.941 19.093 2.443.736 3.16-11.576-1.131-12.611-7.056-1.706-59.42-14.873-70.273-17.444Z" fill="#8A6FE8"/>
  <path d="m92.877 154.826 2 .865c1.175.556 1.417 1.174 1.64 2.048 1.027 3.977 7.185 15.838 9.803 19.007 5.968 7.227 10.858 8.781 10.858 8.781l-2.78 8.729s-19.387-4.832-24.12-8.491c.204-6.249-.76-18.67.029-22.742.779-4.077 2.57-8.197 2.57-8.197Z" fill="#512BD4"/>
  <path d="m96.67 185.713-2.776-29.585a1.538 1.538 0 0 0-1.739-1.378l-5.754.775a1.532 1.532 0 0 0-1.312 1.701l3.512 29.446c.1.851.879 1.454 1.73 1.34l5.017-.632a1.543 1.543 0 0 0 1.321-1.667Z" fill="url(#b)"/>
  <path d="M271.229 122.286h-47.608c-1.093 0-2.09.613-2.589 1.587-4.671 9.152-30.901 56.171-95.021 95.677 18.271 16.626 47.67 8.03 60.114 2.185 50.511-23.716 80.409-81.972 87.128-96.251.703-1.487-.38-3.198-2.024-3.198Z" fill="#ED9583"/>
  <path d="M132.806 222.287c71.376-43.978 100.352-100.001 100.352-100.001h-9.608c-1.05 0-2.005.585-2.48 1.521-4.576 8.985-30.782 56.142-95.059 95.743 4.543 4.134 9.77 6.704 15.253 8.154-3.055-1.326-5.906-3.099-8.458-5.417Z" fill="#E86E58"/>
  <path d="M145.379 226.045c67.361-22.941 107.513-103.759 107.513-103.759h-11.347s-30.483 57.587-101.854 101.559c4.538 4.134 4.22 2.295 5.688 2.2Z" fill="#E86E58"/>
  <path d="M170.711 227.148c61.406-17.168 96.384-88.269 102.808-102.41.523-1.15-.323-2.452-1.582-2.452h-9.176s-52.402 98.071-117.192 106.149c4.538 4.13 24.12-.646 25.142-1.287Z" fill="#E86E58"/>
  <path d="m142.714 158.566 7.07-6.287c-5.816-6.543-8.04-13.034-6.253-18.275 2.119-6.22 9.817-10.886 21.677-13.138l-1.763-9.295c-19.677 3.735-26.562 12.602-28.871 19.383-2.932 8.605-.043 18.413 8.14 27.612Z" fill="#8A6FE8"/>
  <path d="m169.219 132.517-8.677-10.387a4.112 4.112 0 0 1 .518-5.788l.242-.2a4.112 4.112 0 0 1 5.788.518l8.677 10.388a4.11 4.11 0 0 1-.518 5.787l-.243.2a4.11 4.11 0 0 1-5.787-.518Z" fill="#D0C5F3"/>
  <path d="m166.13 106.824 8.102-3.663a4.286 4.286 0 0 1 5.659 2.181 4.286 4.286 0 0 1-2.181 5.659l-8.306 3.754-3.274-7.931Z" fill="#8A6FE8"/>
  <path d="m170.511 108.792 12.26.028a4.288 4.288 0 1 1-.053 8.577l-9.113.009-3.094-8.614Z" fill="#8A6FE8"/>
  <path d="m169.195 113.866 11.946 2.813a4.292 4.292 0 0 1 3.202 5.151 4.29 4.29 0 0 1-5.15 3.203l-12.165-2.861 2.167-8.306Z" fill="#8A6FE8"/>
  <path d="M166.89 124.439a8.981 8.981 0 1 0 0-17.962 8.981 8.981 0 0 0 0 17.962Z" fill="url(#c)"/>
  <path d="M142.638 157.169c2.513-12.236 8.595-19.991 8.595-19.991l-2.551-1.254-.038-.081c13.452-18.099 38.303-24.595 59.254-14.279 23.606 11.623 33.319 40.181 21.701 63.787-11.618 23.607-40.181 33.32-63.787 21.702-18.627-9.171-28.601-28.886-26.273-48.392.181-.798.818-2.058 3.099-1.492Z" fill="url(#d)"/>
  <path d="M142.638 157.169c2.485-12.084 8.443-19.796 8.591-19.986l31.523 15.443s2.931 1.093 1.677 3.645c-1.254 2.551-4.913 9.712-8.838 17.686-.808 1.639-2.542 1.767-3.597 1.249 0 0-29.741-15.324-29.356-18.037Z" fill="url(#e)"/>
  <path d="M154.507 155.069c-.841-1.654-1.976-2.281-3.715-1.83-1.032.266-4.766 1.074-7.646 1.682a50.93 50.93 0 0 0-.513 2.243v.005l16.873 8.306c.005 0-4.158-8.753-4.999-10.406Z" fill="#A08BE8"/>
  <path d="M139.468 159.231s-.062-2.86 3.165-2.062c.005-.014 30.829 15.101 30.829 15.101 1.017.499 2.618.537 3.217-.39l-1.055 2.139c-.732 1.487-2.224 1.729-3.283 1.373-.105-.038-32.873-16.161-32.873-16.161Z" fill="#512BD4"/>
  <path d="m139.345 167.803 73.704 36.289a47.873 47.873 0 0 1-9.675 4.885l-62-30.525a47.767 47.767 0 0 1-2.029-10.649Z" fill="#D8CFF7"/>
  <path d="m204.548 116.741 8.168 4.248 3.207-8.985-5.863-3.051-5.512 7.788Z" fill="#8A6FE8"/>
  <path d="M215.296 112.436a6.558 6.558 0 1 0 0-13.115 6.558 6.558 0 0 0 0 13.115Z" fill="#D8CFF7"/>
  <path d="M198.755 120.243a.699.699 0 0 1-.266-1.007 8.75 8.75 0 0 1 11.295-2.884 8.742 8.742 0 0 1 4.125 10.9.7.7 0 0 1-.979.361l-14.175-7.37Z" fill="url(#f)"/>
  <path d="m159.264 152.854 11.152 5.546c-1.136 1.449-4.044 1.691-6.914.465-3.183-1.354-5.112-3.991-4.305-5.882.019-.048.048-.086.067-.129ZM145.721 147.067a75.522 75.522 0 0 0-1.173 3.245c2.361.552 4.5.114 5.345-1.169l-4.172-2.076Z" fill="#8065E0"/>
  <path d="M44.358 191.139c15.058 13.609 54.53 43.112 109.266 38.033-35.686-13.785-52.255-43.317-52.255-43.317l-54.588-1.126c-3.312-.067-4.913 4.158-2.423 6.41Z" fill="#E3646A"/>
  <path d="M44.358 191.139c15.058 13.609 54.53 43.112 109.266 38.033-35.686-13.785-52.255-43.317-52.255-43.317l-54.588-1.126c-3.312-.067-4.913 4.158-2.423 6.41Z" fill="#ED9583"/>
  <path d="M146.781 227.585c-2.086-.399-41.848-9.775-67.84-35.767-2.362-2.361-1.464-5.768.836-6.405l-10.663-.218c-1.886.845-3.26 4.001-.917 6.258 5.004 4.818 26.928 31.19 78.717 37.03.48.052 2.072-.475-.133-.898Z" fill="#E86E58"/>
  <path d="M144.163 224.952c-29.162-14.801-42.789-39.097-42.789-39.097l-7.793-.161c-2.162.361-4.106 3.948-1.516 6.443 4.98 4.799 28.838 27.052 49.765 33.105.323.095.846-.237 2.333-.29Z" fill="#E86E58"/>
  <path d="M144.096 228.065c-46.253.365-84.519-32.683-88.72-36.584-1.928-1.791-2.066-5.849 2.101-6.572l-10.691-.18c-3.312-.067-4.914 4.158-2.424 6.41 15.058 13.609 54.531 43.112 109.266 38.033-.917-.352-1.815-.723-2.708-1.093a316.881 316.881 0 0 0-6.824-.014Z" fill="#E86E58"/>
  <path d="M296.185 252.845c1.449 0 1.801-2.015.442-2.509L103.265 180.31c-2.98-1.079-6.235.532-7.28 3.597s.518 6.419 3.493 7.498l169.66 61.445h27.047v-.005Z" fill="#F7B548"/>
  <path d="m156.09 203.855-.361-8.606c9.527-.769 17.282-3.487 23.05-8.078 5.075-4.039 8.758-9.636 10.943-16.631l8.715 2.105c-4.058 13.001-14.702 28.976-42.347 31.21Z" fill="url(#g)"/>
  <path d="m150.811 197.929-6.867-4.533c-1.82-1.221-2.186-3.654-.817-5.441 1.368-1.786 3.953-2.242 5.773-1.021l7.042 4.647-5.131 6.348ZM153.381 205.527l-8.287 2.357c-2.209.613-4.447-.57-4.994-2.647-.546-2.071.803-4.252 3.017-4.865l8.497-2.414 1.767 7.569Z" fill="#8A6FE8"/>
  <path d="m151.908 200.129-8.334 2.158c-2.224.56-4.424-.68-4.914-2.766-.489-2.091.917-4.234 3.141-4.794l8.549-2.21 1.558 7.612ZM157.126 207.513l-7.717 3.826c-2.063 1.007-4.519.27-5.484-1.645-.964-1.914-.081-4.281 1.986-5.288l7.912-3.92 3.303 7.027Z" fill="#8A6FE8"/>
  <path d="M159.558 191.975c-4.319-1.725-9.46.266-11.475 4.448-2.015 4.181-.147 8.976 4.172 10.701 4.319 1.725 9.461-.266 11.475-4.448 2.02-4.181.153-8.971-4.172-10.701Z" fill="url(#h)"/>
  <path d="M194.507 180.153a8.747 8.747 0 0 0 8.748-8.748 8.748 8.748 0 1 0-17.495 0 8.747 8.747 0 0 0 8.747 8.748Z" fill="url(#i)"/>
  <path d="M206.353 254.974h65.907a3.29 3.29 0 0 0 3.288-3.288v-31.694a3.29 3.29 0 0 0-3.288-3.289h-65.907a3.29 3.29 0 0 0-3.288 3.289v31.694a3.286 3.286 0 0 0 3.288 3.288Z" fill="#3E8EED"/>
  <path d="M246.206 254.974h26.054a3.29 3.29 0 0 0 3.288-3.288v-31.694a3.29 3.29 0 0 0-3.288-3.289h-26.054a3.29 3.29 0 0 0-3.288 3.289v31.694a3.286 3.286 0 0 0 3.288 3.288Z" fill="#0064DA"/>
  <path d="M201.901 222.348v-4.129c0-2.433 1.91-4.4 4.262-4.4h66.434c2.352 0 4.263 1.972 4.263 4.4v4.129h-74.959Z" fill="#E1DFDD"/>
  <path d="M243.027 222.348v-4.129c0-2.433 1.911-4.4 4.263-4.4h25.307c2.352 0 4.263 1.972 4.263 4.4v4.129h-33.833Z" fill="#C8C6C4"/>
  <path d="M217.102 225.926h8.615c.822 0 1.487-.665 1.487-1.487v-2.49c0-.822-.665-1.487-1.487-1.487h-8.615c-.822 0-1.487.665-1.487 1.487v2.49a1.49 1.49 0 0 0 1.487 1.487Z" fill="#fff"/>
  <path d="m91.096 29.423 2.052 10.606a3.114 3.114 0 0 0 2.642 2.495l47.693 6.434a3.005 3.005 0 0 0 3.084-1.63l5.65-10.61 2.804 10.871A3.436 3.436 0 0 0 158 50.345l86.358 10.625a2.98 2.98 0 0 0 2.989-1.54l5.222-9.636 2.832 10.074a3.42 3.42 0 0 0 2.851 2.47l48.7 5.612a3.784 3.784 0 0 0 3.711-1.872l4.681-8.163s-37.995-29.323-111.918-34.688c-73.922-5.365-112.33 6.196-112.33 6.196Z" fill="#FAE969"/>
  <path d="m91.096 29.423 2.052 10.606a3.114 3.114 0 0 0 2.642 2.495l47.693 6.434a3.005 3.005 0 0 0 3.084-1.63l5.65-10.61 2.804 10.871A3.436 3.436 0 0 0 158 50.345l86.358 10.625a2.98 2.98 0 0 0 2.989-1.54l5.222-9.636 2.832 10.074a3.42 3.42 0 0 0 2.851 2.47l48.7 5.612a3.784 3.784 0 0 0 3.711-1.872l4.681-8.163s-37.995-29.323-111.918-34.688c-73.922-5.365-112.33 6.196-112.33 6.196Z" fill="#CEDB59"/>
  <path d="m153.148 21.973-.803 15.238 2.676 10.383A3.436 3.436 0 0 0 158 50.35l86.358 10.625a2.984 2.984 0 0 0 2.989-1.54l5.222-9.636.024.085.527-12.891-96.218-15.11c-1.268.028-2.518.056-3.754.09Z" fill="#BBCB37"/>
  <path d="M91.096 29.423 315.344 57.92s-29.817-44.016-98.29-54.926C141.892-8.98 91.095 29.424 91.095 29.424Z" fill="#E4ECA1"/>
  <path d="M252.574 49.799c.223-22.1-14.964-38.37-20.842-43.84-4.68-1.15-9.57-2.152-14.673-2.965A184.272 184.272 0 0 0 187.38.685c-10.012 3.393-26.7 12.468-35.572 36.313l.015.142 100.751 12.801a.679.679 0 0 1 0-.142Z" fill="#CEDB59"/>
  <path d="M281.873 126.606c-1.853-2.628-5.427-3.203-7.974-1.293l-166.724 124.9c-1.135.85-.537 2.661.889 2.661h13.471a5.355 5.355 0 0 0 3.208-1.07l155.88-116.987c2.542-1.906 3.108-5.583 1.25-8.211Z" fill="#FCCF84"/>
  <path d="M287.793 126.606c-1.853-2.628-5.426-3.203-7.973-1.293l-166.724 124.9c-1.136.85-.537 2.661.889 2.661h13.471a5.353 5.353 0 0 0 3.207-1.07l155.881-116.987c2.542-1.906 3.103-5.583 1.249-8.211Z" fill="#F7B548"/>
  <path d="M218.96 190.407a7.113 7.113 0 1 0 0-14.226 7.113 7.113 0 1 0 0 14.226Z" fill="#CEDB59"/>
  <path d="M218.96 188.511a5.217 5.217 0 1 0 0-10.434 5.218 5.218 0 1 0 0 10.434Z" fill="#A8B82F"/>
  <path d="m213.614 180.7 5.963 2.984-4.77-4.681-1.193 1.697ZM213.662 185.475l5.55-1.516-4.324 3.246-1.226-1.73ZM219.292 177.293l.243 6.025 1.786-5.783-2.029-.242ZM225.36 181.664s-5.782 1.93-5.782 2.02c0 .09 5.92-.09 5.92-.09l-.138-1.93Z" fill="#CEDB59"/>
  <path d="M234.27 185.052h-.062a1.467 1.467 0 0 1-1.406-1.53l.874-20.775a1.48 1.48 0 0 1 .812-1.254l10.06-5.032a1.474 1.474 0 0 1 1.972.656 1.475 1.475 0 0 1-.656 1.972l-9.285 4.642-.836 19.91a1.478 1.478 0 0 1-1.473 1.411Z" fill="#fff"/>
  <path d="M235.653 213.91h-13.98l-3.302-31.058h20.579l-3.297 31.058Z" fill="#FAF9F8"/>
  <path d="M230.34 182.852v31.058h5.313l3.297-31.058h-8.61Z" fill="#E1DFDD"/>
  <path d="m218.908 187.884 2.765 26.026h13.98l2.765-26.026h-19.51Z" fill="#FCCF84"/>
  <path d="M230.331 187.884v26.026h5.322l2.765-26.026h-8.087Z" fill="#F7B548"/>
  <path d="m140.49 165.337-1.155 2.405a47.762 47.762 0 0 0 3.193 14.008l6.116 2.936 6.025-12.54-14.179-6.809Z" fill="#512BD4"/>
  <path d="M143.032 174.665c-.105.218-.171.38-.2.475l-.009-.005c0-.047-.01-.137-.024-.275l-.356-3.241-.651-.314-1.488 3.075c.038.18.072.356.114.537l.238.114 1.098-2.272c.118-.242.19-.403.209-.484l.014.005c-.005.08-.005.166.005.247l.38 3.326.613.294 1.673-3.464-.537-.261-1.079 2.243ZM145.612 177.43l-1.896-.917 1.673-3.464 1.82.879-.238.49-1.259-.608-.475.978 1.159.561-.233.485-1.159-.561-.494 1.022 1.335.646-.233.489ZM149.746 175.763l-.969-.471-1.44 2.975-.561-.271 1.44-2.975-.969-.47.237-.489 2.5 1.206-.238.495Z" fill="#fff"/>
  <defs>
    <radialGradient id="c" cx="0" cy="0" r="1" gradientUnits="userSpaceOnUse" gradientTransform="rotate(180 83.445 55.508) scale(11.8416)">
      <stop stop-color="#8065E0"/>
      <stop offset=".863" stop-color="#512BD4"/>
    </radialGradient>
    <radialGradient id="d" cx="0" cy="0" r="1" gradientUnits="userSpaceOnUse" gradientTransform="rotate(180 97.35 65.03) scale(47.6523)">
      <stop offset=".474" stop-color="#A08BE8"/>
      <stop offset=".862" stop-color="#8065E0"/>
    </radialGradient>
    <radialGradient id="e" cx="0" cy="0" r="1" gradientUnits="userSpaceOnUse" gradientTransform="translate(158.428 144.372) scale(35.8123)">
      <stop offset=".164" stop-color="#E1DFDD"/>
      <stop offset=".326" stop-color="#E6E5E3"/>
      <stop offset="1" stop-color="#FAF9F8"/>
      <stop offset="1" stop-color="#F7F6F5"/>
    </radialGradient>
    <radialGradient id="f" cx="0" cy="0" r="1" gradientUnits="userSpaceOnUse" gradientTransform="rotate(180 103.408 59.634) scale(8.11425)">
      <stop stop-color="#8065E0"/>
      <stop offset=".863" stop-color="#512BD4"/>
    </radialGradient>
    <radialGradient id="h" cx="0" cy="0" r="1" gradientUnits="userSpaceOnUse" gradientTransform="rotate(-20.516 615.908 -329.755) scale(14.6728 13.6938)">
      <stop stop-color="#8065E0"/>
      <stop offset=".863" stop-color="#512BD4"/>
    </radialGradient>
    <radialGradient id="i" cx="0" cy="0" r="1" gradientUnits="userSpaceOnUse" gradientTransform="rotate(180 97.112 83.97) scale(10.0397)">
      <stop stop-color="#8065E0"/>
      <stop offset=".863" stop-color="#512BD4"/>
    </radialGradient>
    <linearGradient id="a" x1="76.789" y1="156.286" x2="76.788" y2="189.4" gradientUnits="userSpaceOnUse">
      <stop stop-color="#522CD5"/>
      <stop offset=".833" stop-color="#8A6FE8"/>
    </linearGradient>
    <linearGradient id="b" x1="90.868" y1="154.732" x2="90.868" y2="188.019" gradientUnits="userSpaceOnUse">
      <stop stop-color="#522CD5"/>
      <stop offset=".833" stop-color="#8A6FE8"/>
    </linearGradient>
    <linearGradient id="g" x1="198.436" y1="187.197" x2="155.727" y2="187.197" gradientUnits="userSpaceOnUse">
      <stop stop-color="#9780E6"/>
      <stop offset="1" stop-color="#8A6FE8"/>
    </linearGradient>
  </defs>
</svg>
