<svg xmlns="http://www.w3.org/2000/svg" viewBox="0 -35 2000 2000" xml:space="preserve" width="500" height="500">
  <ellipse fill="#DFD8F7" cx="999.9" cy="1659.2" rx="683.7" ry="154.3"/>
  <radialGradient id="a" cx="-1264.918" cy="-754.568" r="1.43" gradientTransform="translate(332994.875 198802.734) scale(262.45)" gradientUnits="userSpaceOnUse">
    <stop offset=".47" style="stop-color:#a08be8"/>
    <stop offset=".86" style="stop-color:#8065e0"/>
  </radialGradient>
  <path fill="url(#a)" d="M1300.6 939.3c24.9-95.5 8.8-171.8 8.8-171.8h22.5l.6-.4c-32.2-175.3-185.8-308.2-370.4-308.2-208 0-376.6 168.6-376.6 376.6s168.6 376.6 376.6 376.6c164.1 0 303.7-105 355.3-251.5 1.5-6.1 1.3-17.3-16.8-21.3z"/>
  <path fill="#D8CFF7" d="M1286.8 1026.3H637.3c14.5 24.7 31.9 47.6 51.6 68.4h546.3c19.8-20.8 37.1-43.8 51.6-68.4z"/>
  <radialGradient id="b" cx="-1263.448" cy="-755.678" r="1.43" gradientTransform="translate(259534.313 155186.188) scale(204.45)" gradientUnits="userSpaceOnUse">
    <stop offset=".09" style="stop-color:#e1dfdd"/>
    <stop offset=".9" style="stop-color:#fff"/>
  </radialGradient>
  <path fill="url(#b)" d="M1300.6 939.3c24.6-94.4 9.2-169.9 8.9-171.7H918.7s-24.6-2.5-24.6 20 .9 86 .9 156.3c0 14.5 11.8 21.4 21.2 21.4 0 0 340.8-.1 384.4-26z"/>
  <path fill="#A08BE8" d="M1065.2 939.5s60.1-47.6 71.8-56.4 22-9.3 32.7 0 70.9 56.4 70.9 56.4h-175.4z"/>
  <path fill="#512BD4" d="M1315.9 965s10.4-20.1-15.2-25.7c0-.1-384.2-.3-384.2-.3-9 0-20.5-5.3-21.4-14v18.8c0 13.1 9.8 20.1 18.5 21.2.9.1 1.8.2 2.7.2h26.3l373.3-.2zM1085.1 1115.1l123.3-.6-.5-109-123.3.6.5 109z"/>
  <path fill="#FFF" d="M1106.4 1074.3c-.8 0-1.5-.3-2.1-.8-.6-.5-.9-1.2-.9-2s.3-1.5.9-2c.6-.6 1.3-.9 2.1-.8.8 0 1.5.3 2.1.8.6.5.9 1.2.9 2s-.3 1.5-.9 2c-.6.5-1.3.8-2.1.8zM1139.2 1073.7h-5.3l-14.1-22.1c-.4-.6-.6-1.1-.9-1.8h-.1c.1 1.4.2 2.8.2 4.2v19.8h-4.7l-.1-30.2h5.7l13.6 21.6c.6.9 1 1.5 1.1 1.8h.1c-.2-1.3-.2-2.7-.2-4.1v-19.4h4.7v30.2zM1162.2 1073.7h-16.5l-.1-30.2h15.8v4.3h-11v8.5h10.1v4.2h-10.1v8.9h11.6l.2 4.3zM1185.5 1047.8h-8.5l.1 25.9h-4.9l-.1-25.9h-8.4v-4.3l21.8-.1v4.4z"/>
  <g class="leg-steam-roller-legs">
    <path fill="#512BD4" d="M856.4 1617c0 41.4-26.7 74.9-59.7 74.9S737 1658.3 737 1617s26.7-75 59.7-75 59.7 33.6 59.7 75z"/>
    <linearGradient id="c" gradientUnits="userSpaceOnUse" x1="964.642" y1="255.57" x2="971.612" y2="537.72" gradientTransform="matrix(1 0 0 -1 0 2000)">
      <stop offset=".05" style="stop-color:#522cd5"/>
      <stop offset=".5" style="stop-color:#8a6fe8"/>
      <stop offset=".67" style="stop-color:#7f62e4"/>
      <stop offset=".99" style="stop-color:#6240da"/>
      <stop offset="1" style="stop-color:#613eda"/>
    </linearGradient>
    <path fill="url(#c)" d="M1137 1617c0 41.4-26.7 74.9-59.7 74.9H796.7c33 0 59.7-33.6 59.7-74.9 0-37.9-22.4-69.2-51.5-74.2.2-.2.3-.5.5-.7h271.9c12.7 0 24.4 5 34.1 13.4 13.5 11.8 22.9 30.3 25.1 51.8.3 3.2.5 6.4.5 9.7z"/>
    <ellipse fill="#D8CFF7" cx="792.3" cy="1616.9" rx="40.7" ry="51"/>
    <linearGradient id="d" gradientUnits="userSpaceOnUse" x1="870.267" y1="314.007" x2="1103.25" y2="729.401" gradientTransform="matrix(1 0 0 -1 0 2000)">
      <stop offset="0" style="stop-color:#522cd5"/>
      <stop offset=".44" style="stop-color:#8a6fe8"/>
      <stop offset=".62" style="stop-color:#886ce7"/>
      <stop offset=".75" style="stop-color:#8063e5"/>
      <stop offset=".87" style="stop-color:#7253e0"/>
      <stop offset=".98" style="stop-color:#603dda"/>
      <stop offset="1" style="stop-color:#5b37d8"/>
    </linearGradient>
    <path fill="url(#d)" d="M1127 1554.4v52.8c-2-21.4-10.7-40-23-51.8v-6.4c0-14-20-23-29-23H846c-14.6 0-28 12-30.7 16.7-4 6.8-6.1 14.4-6.3 22.3v40c0 13 5 38-13 38s-9-44-9-83 27-55 49-61 91-6 91-48c0-17 .5-76.3.5-76.3.8-30 1.4-99-3-164.4 12.3 1.2 24.8 1.8 37.5 1.8h.1c11.5 0 22.9-.5 34.2-1.5.8 59.5 2.5 133.6 2.2 163.5.3 4.4 2.5 42.4 2.5 83.8 0 35 70 38 97 44s29 30.1 29 52.5z"/>
  </g>
  <g class="arm-doctor-arms">
    <path fill="#88DDE5" d="M1441.7 1056.2c-21.3-1.8-57.4-17.6-94.1-41.3-14.6-9.4-28.2-19.4-40.2-29.4-9.6 22.1-21.2 43.1-34.6 62.7 13.5 10.8 28.3 21.2 44.2 31.1 44.2 27.6 89.8 46.1 119 48.5l2 .2 5.9-71.6-2.2-.2z"/>
    <path fill="#B7EBF0" d="m1634.7 939.8-14.1-70.1c-3.9-18.7-22.2-30.6-40.8-26.8-18.7 3.9-30.6 22.2-26.8 40.8l14.5 71.9 67.2-15.8z"/>
    <path fill="#605D5A" d="m1596.7 1166.6 64.2-285.2c2.1-9.1-5.1-16.4-16.1-16.3l-217.3 2c-10.9.1-21.4 7.6-23.5 16.7l-64.2 285.2c-2.1 9.1 5.1 16.4 16.1 16.3l217.3-2c10.9-.1 21.4-7.6 23.5-16.7z"/>
    <path fill="#B7EBF0" d="M1609.1 1081.1h-30.2c-19 0-34.3-15.4-34.3-34.3 0-19 15.4-34.3 34.3-34.3h30.2c19 0 34.3 15.4 34.3 34.3s-15.4 34.3-34.3 34.3z"/>
    <path fill="#B7EBF0" d="M1646.4 1021.3h-43.7c-19 0-34.3-15.4-34.3-34.3 0-19 15.4-34.3 34.3-34.3h43.7c19 0 34.3 15.4 34.3 34.3s-15.3 34.3-34.3 34.3z"/>
    <path fill="#B7EBF0" d="M1657.2 968.3H1627c-19 0-34.3-15.4-34.3-34.3 0-19 15.4-34.3 34.3-34.3h30.2c19 0 34.3 15.4 34.3 34.3s-15.3 34.3-34.3 34.3z"/>
    <path fill="#88DDE5" d="M507.7 1243.5c-2-6.3-47.9-156.9 26.7-270.6 43.1-65.7 115.8-104.5 216.1-115.2l7.7 72.1c-77.5 8.3-132.3 36-163 82.5-55.9 84.8-18.7 208.3-18.3 209.6l-69.2 21.6z"/>
    <path fill="#B7EBF0" d="m502.9 1271.8 4.1 71.5c1.2 19.1 17.6 33.5 36.7 32.2s33.5-17.6 32.2-36.7l-4.2-73.3-68.8 6.3z"/>
    <path fill="#B7EBF0" d="m486.8 1180.8-31.2 113.5c-4.6 18.5 6.7 37.2 25.2 41.9 18.5 4.6 37.2-6.7 41.9-25.2l31.7-115.3-67.6-14.9z"/>
    <path fill="#B7EBF0" d="m536.8 1244.9 36.3 156.7c4.5 18.6 23.2 29.9 41.7 25.4 18.6-4.5 29.9-23.2 25.4-41.7l-36.7-158.4-66.7 18z"/>
    <path fill="#E1EA95" d="m575.7 1480.3-25.5 28.9c-1.8 2-4.7 2.7-7.2 1.6s-4-3.6-3.7-6.3l3.9-38.4c.1-.6.2-1.3.5-1.9l125.2-285.5c1.4-3.2 5.1-4.6 8.2-3.2l21.6 9.5c3.2 1.4 4.6 5.1 3.2 8.2l-125.2 285.5c-.2.6-.6 1.2-1 1.6z"/>
    <path fill="#C5D43B" d="m560.8 1464.3-17.8 46.6c-2.5-1.1-4-3.6-3.7-6.3l3.9-38.4c.1-.6.2-1.3.5-1.9l125.2-285.5c1.4-3.2 5.1-4.6 8.2-3.2l7.6 3.3-123.9 285.4z"/>
    <path fill="#B3AFAB" d="m543.3 1466.1 33 13.3-.6.9-25.5 28.9c-1.8 2-4.7 2.7-7.2 1.6s-4-3.6-3.7-6.3l4-38.4z"/>
    <path fill="#B7EBF0" d="m538.1 1227.5 109.4 81.9c15.5 11.1 37.1 7.5 48.2-8 11-15.5 7.5-37.1-8-48.2l-110.8-82.9-38.8 57.2z"/>
    <path fill="#605D5A" d="m553.9 1504.9-14.2-5.7-2.2 25 16.4-19.3"/>
    <radialGradient id="s" cx="739.32" cy="1137.854" r="93.877" gradientTransform="matrix(1 0 0 -1 0 2000)" gradientUnits="userSpaceOnUse">
      <stop offset="0" style="stop-color:#7bddef"/>
      <stop offset=".924" style="stop-color:#28c2d1"/>
    </radialGradient>
    <circle fill="url(#s)" cx="739.3" cy="885.4" r="68.8"/>
    <path fill="#B7EBF0" d="m564 1137.1-72-1.3s-5.8 60.8-30.1 136.1c-4.8 15 43.5 8.4 77 5s133.4-31.3 95.4-63.6c-37.9-32.4-61.4-46.1-70.3-76.2z"/>
  </g>
  <g class="antenna-spotlight">
    <path fill="#9C9894" d="M757.5 462.2c-18-45.4-23.4-89.6-15.7-127.8 7.2-36 25.7-66 53.4-86.8 30.9-23.2 72.1-33.5 116.1-29 47.3 4.8 96.5 26.2 142.4 61.8l-8.6 11.1c-43.8-34-90.6-54.4-135.3-58.9-40.5-4.1-78.2 5.2-106.3 26.2-24.9 18.7-41.6 45.8-48.1 78.3-7.2 35.5-2 76.9 15 119.9l-12.9 5.2z"/>
    <path fill="#512BD4" d="M848.1 477.2c-44.2 14-85.5 36.2-121.7 65.3-16.4-34.5-1.7-75.7 32.8-92.1 9.3-4.4 19.4-6.7 29.6-6.7 2.8 0 5.7.2 8.5.5 21.1 2.7 39.8 14.8 50.8 33z"/>
    <path fill="#FCD18A" d="M1111.2 435.1c-5.6-3.3-10.8-7.3-15.4-11.9-15.5-15.4-24.2-36.6-25.4-59.2-1-21.6 4.4-43 15.6-61.5 9.1-15.4 21.9-28.4 37.2-37.8 20.9-12.7 45.1-17.4 67.6-12.4 8.5 1.9 16.6 5.1 24 9.5 42.5 25.4 53.8 84.8 25.2 132.7s-86.3 66-128.8 40.6z"/>
    <linearGradient id="t" gradientUnits="userSpaceOnUse" x1="1338.041" y1="469.382" x2="1049.651" y2="321.712" gradientTransform="matrix(.35 .94 .94 -.35 436.62 -555.54)">
      <stop offset=".03" style="stop-color:#f8b84f;stop-opacity:0"/>
      <stop offset=".21" style="stop-color:#f8b84f;stop-opacity:.22"/>
      <stop offset=".5" style="stop-color:#f8b84f;stop-opacity:.55"/>
      <stop offset=".73" style="stop-color:#f8b84f;stop-opacity:.79"/>
      <stop offset=".91" style="stop-color:#f8b84f;stop-opacity:.94"/>
      <stop offset="1" style="stop-color:#f8b84f"/>
    </linearGradient>
    <path opacity=".3" fill="url(#t)" d="M1324.3 557.6c67.4-68.6 96.7-162.4 46.2-184.6l-204.9-89.8-95.9 81.9 108.5 201c1.6 3.4 3.3 6.7 5.3 9.8 29.6 47.6 92.6 30.9 140.8-18.3z"/>
    <circle fill="#F8BB55" cx="1124.3" cy="335.7" r="67"/>
    <path fill="#DF9B39" d="m1095.8 423.1-81.8-70.5-.9-.8-.2-.2c-23.5-20.8-28.2-58.8-9.5-90.1 18-30.1 51.7-44.1 80.6-35.5l106.8 26.1c-22.5-5-46.7-.3-67.6 12.4-15.3 9.4-28 22.4-37.1 37.8-11.2 18.5-16.6 39.9-15.6 61.5 1 22.8 9.8 44 25.3 59.3z"/>
  </g>
  <g class="eyes-original-eyes">
    <path fill="#512BD4" d="M1286.5 851.6c.4-27.3-12.4-49.7-28.7-49.9s-29.8 21.7-30.2 49 12.4 49.7 28.7 49.9 29.8-21.6 30.2-49z"/>
    <path fill="#8065E0" d="M1256.7 825c-10.7 10.7-10.7 28.2 0 38.9 7.1 7.1 17.5 9.8 27.2 7 1.7-6.3 2.5-12.8 2.6-19.2.2-13.4-2.8-25.6-7.8-34.6-8.1-.8-16.2 2.1-22 7.9z"/>
    <path fill="#512BD4" d="M1020.8 900.9c16.3-.2 29.1-22.6 28.7-49.9s-13.9-49.3-30.2-49.1-29.1 22.6-28.7 49.9 13.9 49.4 30.2 49.1z"/>
    <path fill="#8065E0" d="M1019.8 826.6c-10.7 10.7-10.7 28.2 0 38.9 7.1 7.1 17.4 9.7 27 7 1.9-7 2.8-14.3 2.6-21.6-.2-12.4-3.1-23.7-7.7-32.3-8.1-.7-16.1 2.2-21.9 8z"/>
  </g>
  <g class="eyewear-fake-mustache-and-glasses">
    <linearGradient id="u" gradientUnits="userSpaceOnUse" x1="869.24" y1="1079.77" x2="1122.47" y2="1079.77" gradientTransform="matrix(1 0 0 -1 0 2000)">
      <stop offset="0" style="stop-color:#9fe4eb;stop-opacity:.8"/>
      <stop offset="1" style="stop-color:#70d6e0;stop-opacity:.3"/>
    </linearGradient>
    <path fill="url(#u)" d="M1122.5 867.3c0 58.5-56.7 105.9-126.6 105.9s-126.6-47.4-126.6-105.9h253.2z"/>
    <path fill="#F4B246" d="M995.8 981.1c-75 0-136.1-51.1-136.1-113.8v-8H1132v8c0 62.7-61.1 113.8-136.2 113.8zM879.1 875.2c4.8 50.3 55.3 90 116.7 90s111.9-39.7 116.7-90H879.1z"/>
    <linearGradient id="v" gradientUnits="userSpaceOnUse" x1="1180.77" y1="1079.77" x2="1434" y2="1079.77" gradientTransform="matrix(1 0 0 -1 0 2000)">
      <stop offset="0" style="stop-color:#9fe4eb;stop-opacity:.8"/>
      <stop offset="1" style="stop-color:#70d6e0;stop-opacity:.3"/>
    </linearGradient>
    <path fill="url(#v)" d="M1434 867.3c0 58.5-56.7 105.9-126.6 105.9s-126.6-47.4-126.6-105.9H1434z"/>
    <path fill="#F4B246" d="M1307.3 981.1c-75 0-136.1-51.1-136.1-113.8v-8h272.2v8c0 62.7-61 113.8-136.1 113.8zm-116.7-105.9c4.8 50.3 55.3 90 116.7 90s111.9-39.7 116.7-90h-233.4z"/>
    <path fill="#F4B246" d="m1126.2 892-11.1-12.9c14.7-8.9 49.2-20.1 74.3.8l-13.4 11.2c-8.3-7-18.6-8.9-31.6-6.1-6.4 1.5-12.6 3.9-18.2 7z"/>
    <path fill="#33312D" d="M1380 1028.6c-17.7 11.2-40.8 10.5-55.5-4.4-.1 9.1-10 7.7-19 6.2-11.8-1.9-23.7-3.5-33.2-10.8-15.4 5.9-32 1.8-47.8-2.7-6-1.7-2.8-.7-6-1.7-3.1-.9-6.3-1-9.5-1.5-15.9-2.6-43.8-8-50.3-7.9-6.5-.1-34.4 5.3-50.3 7.9-3.2.5-6.4.6-9.5 1.5-3.2 1 0 0-6 1.7-15.8 4.5-32.5 8.6-47.8 2.7-9.6 7.2-21.4 8.8-33.2 10.8-9 1.4-18.9 2.8-19-6.2-14.7 14.9-37.8 15.7-55.5 4.4 21.5-113.3 204.7-92.3 216.3-92.1l5.1-.1 5.1.1c11.3-.2 194.5-21.2 216.1 92.1z"/>
  </g>
</svg>
